<mxfile host="app.diagrams.net" agent="Mozilla/5.0 (Windows NT 10.0; Win64; x64) AppleWebKit/537.36 (KHTML, like Gecko) Chrome/130.0.0.0 Safari/537.36" version="24.8.3">
  <diagram id="prtHgNgQTEPvFCAcTncT" name="Page-1">
    <mxGraphModel dx="1208" dy="1208" grid="1" gridSize="10" guides="1" tooltips="1" connect="1" arrows="1" fold="1" page="1" pageScale="1" pageWidth="827" pageHeight="1169" math="0" shadow="0">
      <root>
        <mxCell id="0" />
        <mxCell id="1" parent="0" />
        <mxCell id="6g5Oj7xujyC1Iia1pv8V-36" value="Pool" style="swimlane;childLayout=stackLayout;resizeParent=1;resizeParentMax=0;startSize=20;horizontal=0;horizontalStack=1;" vertex="1" parent="1">
          <mxGeometry x="870" y="190" width="570" height="970" as="geometry" />
        </mxCell>
        <mxCell id="6g5Oj7xujyC1Iia1pv8V-37" value="Organiser" style="swimlane;startSize=20;" vertex="1" parent="6g5Oj7xujyC1Iia1pv8V-36">
          <mxGeometry x="20" width="200" height="970" as="geometry">
            <mxRectangle x="20" width="40" height="480" as="alternateBounds" />
          </mxGeometry>
        </mxCell>
        <mxCell id="6g5Oj7xujyC1Iia1pv8V-40" value="" style="ellipse;whiteSpace=wrap;html=1;fillColor=#141414;" vertex="1" parent="6g5Oj7xujyC1Iia1pv8V-37">
          <mxGeometry x="90" y="30" width="20" height="20" as="geometry" />
        </mxCell>
        <mxCell id="6g5Oj7xujyC1Iia1pv8V-45" value="" style="endArrow=classic;html=1;rounded=0;exitX=0.5;exitY=1;exitDx=0;exitDy=0;entryX=0.499;entryY=0.504;entryDx=0;entryDy=0;entryPerimeter=0;" edge="1" parent="6g5Oj7xujyC1Iia1pv8V-37" source="6g5Oj7xujyC1Iia1pv8V-40">
          <mxGeometry width="50" height="50" relative="1" as="geometry">
            <mxPoint x="-210" y="260" as="sourcePoint" />
            <mxPoint x="99.86000000000013" y="95.03999999999996" as="targetPoint" />
          </mxGeometry>
        </mxCell>
        <mxCell id="6g5Oj7xujyC1Iia1pv8V-62" value="Create Sponsorship Request" style="rounded=0;whiteSpace=wrap;html=1;fontFamily=Helvetica;fontSize=12;fontColor=#000000;align=center;" vertex="1" parent="6g5Oj7xujyC1Iia1pv8V-37">
          <mxGeometry x="103" y="120" width="75" height="50" as="geometry" />
        </mxCell>
        <mxCell id="6g5Oj7xujyC1Iia1pv8V-46" value="Create Event Request" style="rounded=0;whiteSpace=wrap;html=1;fontFamily=Helvetica;fontSize=12;fontColor=#000000;align=center;" vertex="1" parent="6g5Oj7xujyC1Iia1pv8V-37">
          <mxGeometry x="23.25" y="120" width="75" height="50" as="geometry" />
        </mxCell>
        <mxCell id="6g5Oj7xujyC1Iia1pv8V-63" value="" style="line;strokeWidth=2;html=1;" vertex="1" parent="6g5Oj7xujyC1Iia1pv8V-37">
          <mxGeometry x="20" y="90" width="160" height="10" as="geometry" />
        </mxCell>
        <mxCell id="6g5Oj7xujyC1Iia1pv8V-64" value="" style="line;strokeWidth=2;html=1;" vertex="1" parent="6g5Oj7xujyC1Iia1pv8V-37">
          <mxGeometry x="15" y="190" width="160" height="10" as="geometry" />
        </mxCell>
        <mxCell id="6g5Oj7xujyC1Iia1pv8V-69" value="View Event Statistics" style="rounded=0;whiteSpace=wrap;html=1;fontFamily=Helvetica;fontSize=12;fontColor=#000000;align=center;" vertex="1" parent="6g5Oj7xujyC1Iia1pv8V-37">
          <mxGeometry x="114" y="720" width="75" height="50" as="geometry" />
        </mxCell>
        <mxCell id="6g5Oj7xujyC1Iia1pv8V-72" value="Changes Required?" style="rhombus;whiteSpace=wrap;html=1;" vertex="1" parent="6g5Oj7xujyC1Iia1pv8V-37">
          <mxGeometry x="108" y="790" width="87.5" height="80" as="geometry" />
        </mxCell>
        <mxCell id="6g5Oj7xujyC1Iia1pv8V-73" value="Edit Event Details" style="rounded=0;whiteSpace=wrap;html=1;fontFamily=Helvetica;fontSize=12;fontColor=#000000;align=center;" vertex="1" parent="6g5Oj7xujyC1Iia1pv8V-37">
          <mxGeometry x="20" y="805" width="75" height="50" as="geometry" />
        </mxCell>
        <mxCell id="6g5Oj7xujyC1Iia1pv8V-92" value="" style="endArrow=classic;html=1;rounded=0;exitX=0.25;exitY=0.5;exitDx=0;exitDy=0;exitPerimeter=0;entryX=0.5;entryY=0;entryDx=0;entryDy=0;" edge="1" parent="6g5Oj7xujyC1Iia1pv8V-37" source="6g5Oj7xujyC1Iia1pv8V-63" target="6g5Oj7xujyC1Iia1pv8V-46">
          <mxGeometry width="50" height="50" relative="1" as="geometry">
            <mxPoint x="110" y="250" as="sourcePoint" />
            <mxPoint x="160" y="200" as="targetPoint" />
          </mxGeometry>
        </mxCell>
        <mxCell id="6g5Oj7xujyC1Iia1pv8V-93" value="" style="endArrow=classic;html=1;rounded=0;exitX=0.75;exitY=0.5;exitDx=0;exitDy=0;exitPerimeter=0;entryX=0.5;entryY=0;entryDx=0;entryDy=0;" edge="1" parent="6g5Oj7xujyC1Iia1pv8V-37" source="6g5Oj7xujyC1Iia1pv8V-63" target="6g5Oj7xujyC1Iia1pv8V-62">
          <mxGeometry width="50" height="50" relative="1" as="geometry">
            <mxPoint x="110" y="250" as="sourcePoint" />
            <mxPoint x="160" y="200" as="targetPoint" />
          </mxGeometry>
        </mxCell>
        <mxCell id="6g5Oj7xujyC1Iia1pv8V-101" value="" style="group" vertex="1" connectable="0" parent="6g5Oj7xujyC1Iia1pv8V-37">
          <mxGeometry x="142" y="900" width="20" height="20" as="geometry" />
        </mxCell>
        <mxCell id="6g5Oj7xujyC1Iia1pv8V-102" value="" style="ellipse;whiteSpace=wrap;html=1;aspect=fixed;" vertex="1" parent="6g5Oj7xujyC1Iia1pv8V-101">
          <mxGeometry width="20" height="20" as="geometry" />
        </mxCell>
        <mxCell id="6g5Oj7xujyC1Iia1pv8V-103" value="&lt;span style=&quot;color: rgba(0, 0, 0, 0); font-family: monospace; font-size: 0px; text-align: start; text-wrap-mode: nowrap;&quot;&gt;%3CmxGraphModel%3E%3Croot%3E%3CmxCell%20id%3D%220%22%2F%3E%3CmxCell%20id%3D%221%22%20parent%3D%220%22%2F%3E%3CmxCell%20id%3D%222%22%20value%3D%22%22%20style%3D%22endArrow%3Dclassic%3Bhtml%3D1%3Brounded%3D0%3BexitX%3D0.25%3BexitY%3D0.5%3BexitDx%3D0%3BexitDy%3D0%3BexitPerimeter%3D0%3BentryX%3D0.5%3BentryY%3D0%3BentryDx%3D0%3BentryDy%3D0%3B%22%20edge%3D%221%22%20parent%3D%221%22%3E%3CmxGeometry%20width%3D%2250%22%20height%3D%2250%22%20relative%3D%221%22%20as%3D%22geometry%22%3E%3CmxPoint%20x%3D%22950%22%20y%3D%22360%22%20as%3D%22sourcePoint%22%2F%3E%3CmxPoint%20x%3D%22951%22%20y%3D%22385%22%20as%3D%22targetPoint%22%2F%3E%3C%2FmxGeometry%3E%3C%2FmxCell%3E%3C%2Froot%3E%3C%2FmxGraphModel%3E&lt;/span&gt;&lt;span style=&quot;color: rgba(0, 0, 0, 0); font-family: monospace; font-size: 0px; text-align: start; text-wrap-mode: nowrap;&quot;&gt;%3CmxGraphModel%3E%3Croot%3E%3CmxCell%20id%3D%220%22%2F%3E%3CmxCell%20id%3D%221%22%20parent%3D%220%22%2F%3E%3CmxCell%20id%3D%222%22%20value%3D%22%22%20style%3D%22endArrow%3Dclassic%3Bhtml%3D1%3Brounded%3D0%3BexitX%3D0.25%3BexitY%3D0.5%3BexitDx%3D0%3BexitDy%3D0%3BexitPerimeter%3D0%3BentryX%3D0.5%3BentryY%3D0%3BentryDx%3D0%3BentryDy%3D0%3B%22%20edge%3D%221%22%20parent%3D%221%22%3E%3CmxGeometry%20width%3D%2250%22%20height%3D%2250%22%20relative%3D%221%22%20as%3D%22geometry%22%3E%3CmxPoint%20x%3D%22950%22%20y%3D%22360%22%20as%3D%22sourcePoint%22%2F%3E%3CmxPoint%20x%3D%22951%22%20y%3D%22385%22%20as%3D%22targetPoint%22%2F%3E%3C%2FmxGeometry%3E%3C%2FmxCell%3E%3C%2Froot%3E%3C%2FmxGraphModel%3E&lt;/span&gt;" style="ellipse;whiteSpace=wrap;html=1;aspect=fixed;fillColor=#000000;" vertex="1" parent="6g5Oj7xujyC1Iia1pv8V-101">
          <mxGeometry x="5" y="5" width="10" height="10" as="geometry" />
        </mxCell>
        <mxCell id="6g5Oj7xujyC1Iia1pv8V-105" value="" style="endArrow=classic;html=1;rounded=0;exitX=0.5;exitY=1;exitDx=0;exitDy=0;entryX=0.5;entryY=0;entryDx=0;entryDy=0;" edge="1" parent="6g5Oj7xujyC1Iia1pv8V-37" source="6g5Oj7xujyC1Iia1pv8V-72" target="6g5Oj7xujyC1Iia1pv8V-102">
          <mxGeometry width="50" height="50" relative="1" as="geometry">
            <mxPoint x="200" y="940" as="sourcePoint" />
            <mxPoint x="250" y="890" as="targetPoint" />
          </mxGeometry>
        </mxCell>
        <mxCell id="6g5Oj7xujyC1Iia1pv8V-106" value="" style="endArrow=classic;html=1;rounded=0;exitX=0.5;exitY=1;exitDx=0;exitDy=0;entryX=0.5;entryY=0;entryDx=0;entryDy=0;" edge="1" parent="6g5Oj7xujyC1Iia1pv8V-37" source="6g5Oj7xujyC1Iia1pv8V-69" target="6g5Oj7xujyC1Iia1pv8V-72">
          <mxGeometry width="50" height="50" relative="1" as="geometry">
            <mxPoint x="270" y="740" as="sourcePoint" />
            <mxPoint x="320" y="690" as="targetPoint" />
          </mxGeometry>
        </mxCell>
        <mxCell id="6g5Oj7xujyC1Iia1pv8V-109" value="" style="endArrow=classic;html=1;rounded=0;exitX=0;exitY=0.5;exitDx=0;exitDy=0;entryX=1;entryY=0.5;entryDx=0;entryDy=0;" edge="1" parent="6g5Oj7xujyC1Iia1pv8V-37" source="6g5Oj7xujyC1Iia1pv8V-72" target="6g5Oj7xujyC1Iia1pv8V-73">
          <mxGeometry width="50" height="50" relative="1" as="geometry">
            <mxPoint x="270" y="740" as="sourcePoint" />
            <mxPoint x="320" y="690" as="targetPoint" />
          </mxGeometry>
        </mxCell>
        <mxCell id="6g5Oj7xujyC1Iia1pv8V-110" value="No" style="text;html=1;align=center;verticalAlign=middle;whiteSpace=wrap;rounded=0;" vertex="1" parent="6g5Oj7xujyC1Iia1pv8V-37">
          <mxGeometry x="140" y="870" width="60" height="30" as="geometry" />
        </mxCell>
        <mxCell id="6g5Oj7xujyC1Iia1pv8V-114" value="Yes&lt;span style=&quot;color: rgba(0, 0, 0, 0); font-family: monospace; font-size: 0px; text-align: start; text-wrap-mode: nowrap;&quot;&gt;%3CmxGraphModel%3E%3Croot%3E%3CmxCell%20id%3D%220%22%2F%3E%3CmxCell%20id%3D%221%22%20parent%3D%220%22%2F%3E%3CmxCell%20id%3D%222%22%20value%3D%22No%22%20style%3D%22text%3Bhtml%3D1%3Balign%3Dcenter%3BverticalAlign%3Dmiddle%3BwhiteSpace%3Dwrap%3Brounded%3D0%3B%22%20vertex%3D%221%22%20parent%3D%221%22%3E%3CmxGeometry%20x%3D%22972%22%20y%3D%221030%22%20width%3D%2260%22%20height%3D%2230%22%20as%3D%22geometry%22%2F%3E%3C%2FmxCell%3E%3C%2Froot%3E%3C%2FmxGraphModel%3E&lt;/span&gt;" style="text;html=1;align=center;verticalAlign=middle;whiteSpace=wrap;rounded=0;" vertex="1" parent="6g5Oj7xujyC1Iia1pv8V-37">
          <mxGeometry x="82" y="790" width="60" height="30" as="geometry" />
        </mxCell>
        <mxCell id="6g5Oj7xujyC1Iia1pv8V-38" value="Attendee" style="swimlane;startSize=20;" vertex="1" parent="6g5Oj7xujyC1Iia1pv8V-36">
          <mxGeometry x="220" width="150" height="970" as="geometry" />
        </mxCell>
        <mxCell id="6g5Oj7xujyC1Iia1pv8V-50" value="View Events" style="rounded=0;whiteSpace=wrap;html=1;fontFamily=Helvetica;fontSize=12;fontColor=#000000;align=center;" vertex="1" parent="6g5Oj7xujyC1Iia1pv8V-38">
          <mxGeometry x="37.5" y="490" width="75" height="50" as="geometry" />
        </mxCell>
        <mxCell id="6g5Oj7xujyC1Iia1pv8V-51" value="Register for Events" style="rounded=0;whiteSpace=wrap;html=1;fontFamily=Helvetica;fontSize=12;fontColor=#000000;align=center;" vertex="1" parent="6g5Oj7xujyC1Iia1pv8V-38">
          <mxGeometry x="37.5" y="560" width="75" height="50" as="geometry" />
        </mxCell>
        <mxCell id="6g5Oj7xujyC1Iia1pv8V-52" value="Receive Tickets&lt;span style=&quot;color: rgba(0, 0, 0, 0); font-family: monospace; font-size: 0px; text-align: start; text-wrap-mode: nowrap;&quot;&gt;%3CmxGraphModel%3E%3Croot%3E%3CmxCell%20id%3D%220%22%2F%3E%3CmxCell%20id%3D%221%22%20parent%3D%220%22%2F%3E%3CmxCell%20id%3D%222%22%20value%3D%22Register%20for%20Events%22%20style%3D%22rounded%3D0%3BwhiteSpace%3Dwrap%3Bhtml%3D1%3BfontFamily%3DHelvetica%3BfontSize%3D12%3BfontColor%3D%23000000%3Balign%3Dcenter%3B%22%20vertex%3D%221%22%20parent%3D%221%22%3E%3CmxGeometry%20x%3D%221032.5%22%20y%3D%22610%22%20width%3D%2275%22%20height%3D%2250%22%20as%3D%22geometry%22%2F%3E%3C%2FmxCell%3E%3C%2Froot%3E%3C%2FmxGraphModel%3E&lt;/span&gt;" style="rounded=0;whiteSpace=wrap;html=1;fontFamily=Helvetica;fontSize=12;fontColor=#000000;align=center;" vertex="1" parent="6g5Oj7xujyC1Iia1pv8V-38">
          <mxGeometry x="37.5" y="630" width="75" height="50" as="geometry" />
        </mxCell>
        <mxCell id="6g5Oj7xujyC1Iia1pv8V-87" value="" style="endArrow=classic;html=1;rounded=0;exitX=0.5;exitY=1;exitDx=0;exitDy=0;entryX=0.5;entryY=0;entryDx=0;entryDy=0;" edge="1" parent="6g5Oj7xujyC1Iia1pv8V-38" source="6g5Oj7xujyC1Iia1pv8V-50" target="6g5Oj7xujyC1Iia1pv8V-51">
          <mxGeometry width="50" height="50" relative="1" as="geometry">
            <mxPoint x="-70" y="710" as="sourcePoint" />
            <mxPoint x="-20" y="660" as="targetPoint" />
          </mxGeometry>
        </mxCell>
        <mxCell id="6g5Oj7xujyC1Iia1pv8V-88" value="" style="endArrow=classic;html=1;rounded=0;exitX=0.5;exitY=1;exitDx=0;exitDy=0;entryX=0.5;entryY=0;entryDx=0;entryDy=0;" edge="1" parent="6g5Oj7xujyC1Iia1pv8V-38" source="6g5Oj7xujyC1Iia1pv8V-51" target="6g5Oj7xujyC1Iia1pv8V-52">
          <mxGeometry width="50" height="50" relative="1" as="geometry">
            <mxPoint x="-70" y="710" as="sourcePoint" />
            <mxPoint x="-20" y="660" as="targetPoint" />
          </mxGeometry>
        </mxCell>
        <mxCell id="6g5Oj7xujyC1Iia1pv8V-77" value="" style="endArrow=classic;html=1;rounded=0;exitX=0.493;exitY=0.556;exitDx=0;exitDy=0;exitPerimeter=0;entryX=0.5;entryY=0;entryDx=0;entryDy=0;" edge="1" parent="6g5Oj7xujyC1Iia1pv8V-36" source="6g5Oj7xujyC1Iia1pv8V-64" target="6g5Oj7xujyC1Iia1pv8V-48">
          <mxGeometry width="50" height="50" relative="1" as="geometry">
            <mxPoint x="210" y="280" as="sourcePoint" />
            <mxPoint x="260" y="230" as="targetPoint" />
            <Array as="points">
              <mxPoint x="114" y="210" />
              <mxPoint x="455" y="210" />
            </Array>
          </mxGeometry>
        </mxCell>
        <mxCell id="6g5Oj7xujyC1Iia1pv8V-39" value="Administrator" style="swimlane;startSize=20;" vertex="1" parent="6g5Oj7xujyC1Iia1pv8V-36">
          <mxGeometry x="370" width="200" height="970" as="geometry" />
        </mxCell>
        <mxCell id="6g5Oj7xujyC1Iia1pv8V-48" value="Evaluate Request" style="rounded=0;whiteSpace=wrap;html=1;fontFamily=Helvetica;fontSize=12;fontColor=#000000;align=center;" vertex="1" parent="6g5Oj7xujyC1Iia1pv8V-39">
          <mxGeometry x="47.5" y="230" width="75" height="50" as="geometry" />
        </mxCell>
        <mxCell id="6g5Oj7xujyC1Iia1pv8V-66" value="Add Event&amp;nbsp;" style="rounded=0;whiteSpace=wrap;html=1;fontFamily=Helvetica;fontSize=12;fontColor=#000000;align=center;" vertex="1" parent="6g5Oj7xujyC1Iia1pv8V-39">
          <mxGeometry x="47.5" y="410" width="75" height="50" as="geometry" />
        </mxCell>
        <mxCell id="6g5Oj7xujyC1Iia1pv8V-75" value="Request Approved" style="rhombus;whiteSpace=wrap;html=1;" vertex="1" parent="6g5Oj7xujyC1Iia1pv8V-39">
          <mxGeometry x="41.25" y="300" width="87.5" height="80" as="geometry" />
        </mxCell>
        <mxCell id="6g5Oj7xujyC1Iia1pv8V-78" value="" style="endArrow=classic;html=1;rounded=0;exitX=0.5;exitY=1;exitDx=0;exitDy=0;entryX=0.5;entryY=0;entryDx=0;entryDy=0;" edge="1" parent="6g5Oj7xujyC1Iia1pv8V-39" source="6g5Oj7xujyC1Iia1pv8V-48" target="6g5Oj7xujyC1Iia1pv8V-75">
          <mxGeometry width="50" height="50" relative="1" as="geometry">
            <mxPoint x="-80" y="360" as="sourcePoint" />
            <mxPoint x="-30" y="310" as="targetPoint" />
          </mxGeometry>
        </mxCell>
        <mxCell id="6g5Oj7xujyC1Iia1pv8V-82" value="" style="group" vertex="1" connectable="0" parent="6g5Oj7xujyC1Iia1pv8V-39">
          <mxGeometry x="170" y="330" width="20" height="20" as="geometry" />
        </mxCell>
        <mxCell id="6g5Oj7xujyC1Iia1pv8V-81" value="" style="ellipse;whiteSpace=wrap;html=1;aspect=fixed;" vertex="1" parent="6g5Oj7xujyC1Iia1pv8V-82">
          <mxGeometry width="20" height="20" as="geometry" />
        </mxCell>
        <mxCell id="6g5Oj7xujyC1Iia1pv8V-80" value="&lt;span style=&quot;color: rgba(0, 0, 0, 0); font-family: monospace; font-size: 0px; text-align: start; text-wrap-mode: nowrap;&quot;&gt;%3CmxGraphModel%3E%3Croot%3E%3CmxCell%20id%3D%220%22%2F%3E%3CmxCell%20id%3D%221%22%20parent%3D%220%22%2F%3E%3CmxCell%20id%3D%222%22%20value%3D%22%22%20style%3D%22endArrow%3Dclassic%3Bhtml%3D1%3Brounded%3D0%3BexitX%3D0.25%3BexitY%3D0.5%3BexitDx%3D0%3BexitDy%3D0%3BexitPerimeter%3D0%3BentryX%3D0.5%3BentryY%3D0%3BentryDx%3D0%3BentryDy%3D0%3B%22%20edge%3D%221%22%20parent%3D%221%22%3E%3CmxGeometry%20width%3D%2250%22%20height%3D%2250%22%20relative%3D%221%22%20as%3D%22geometry%22%3E%3CmxPoint%20x%3D%22950%22%20y%3D%22360%22%20as%3D%22sourcePoint%22%2F%3E%3CmxPoint%20x%3D%22951%22%20y%3D%22385%22%20as%3D%22targetPoint%22%2F%3E%3C%2FmxGeometry%3E%3C%2FmxCell%3E%3C%2Froot%3E%3C%2FmxGraphModel%3E&lt;/span&gt;&lt;span style=&quot;color: rgba(0, 0, 0, 0); font-family: monospace; font-size: 0px; text-align: start; text-wrap-mode: nowrap;&quot;&gt;%3CmxGraphModel%3E%3Croot%3E%3CmxCell%20id%3D%220%22%2F%3E%3CmxCell%20id%3D%221%22%20parent%3D%220%22%2F%3E%3CmxCell%20id%3D%222%22%20value%3D%22%22%20style%3D%22endArrow%3Dclassic%3Bhtml%3D1%3Brounded%3D0%3BexitX%3D0.25%3BexitY%3D0.5%3BexitDx%3D0%3BexitDy%3D0%3BexitPerimeter%3D0%3BentryX%3D0.5%3BentryY%3D0%3BentryDx%3D0%3BentryDy%3D0%3B%22%20edge%3D%221%22%20parent%3D%221%22%3E%3CmxGeometry%20width%3D%2250%22%20height%3D%2250%22%20relative%3D%221%22%20as%3D%22geometry%22%3E%3CmxPoint%20x%3D%22950%22%20y%3D%22360%22%20as%3D%22sourcePoint%22%2F%3E%3CmxPoint%20x%3D%22951%22%20y%3D%22385%22%20as%3D%22targetPoint%22%2F%3E%3C%2FmxGeometry%3E%3C%2FmxCell%3E%3C%2Froot%3E%3C%2FmxGraphModel%3E&lt;/span&gt;" style="ellipse;whiteSpace=wrap;html=1;aspect=fixed;fillColor=#000000;" vertex="1" parent="6g5Oj7xujyC1Iia1pv8V-82">
          <mxGeometry x="5" y="5" width="10" height="10" as="geometry" />
        </mxCell>
        <mxCell id="6g5Oj7xujyC1Iia1pv8V-84" value="" style="endArrow=classic;html=1;rounded=0;exitX=1;exitY=0.5;exitDx=0;exitDy=0;entryX=0;entryY=0.5;entryDx=0;entryDy=0;" edge="1" parent="6g5Oj7xujyC1Iia1pv8V-39" source="6g5Oj7xujyC1Iia1pv8V-75" target="6g5Oj7xujyC1Iia1pv8V-81">
          <mxGeometry width="50" height="50" relative="1" as="geometry">
            <mxPoint x="-220" y="330" as="sourcePoint" />
            <mxPoint x="-170" y="280" as="targetPoint" />
          </mxGeometry>
        </mxCell>
        <mxCell id="6g5Oj7xujyC1Iia1pv8V-85" value="" style="endArrow=classic;html=1;rounded=0;exitX=0.5;exitY=1;exitDx=0;exitDy=0;entryX=0.5;entryY=0;entryDx=0;entryDy=0;" edge="1" parent="6g5Oj7xujyC1Iia1pv8V-39" source="6g5Oj7xujyC1Iia1pv8V-75" target="6g5Oj7xujyC1Iia1pv8V-66">
          <mxGeometry width="50" height="50" relative="1" as="geometry">
            <mxPoint x="139" y="350" as="sourcePoint" />
            <mxPoint x="180" y="350" as="targetPoint" />
          </mxGeometry>
        </mxCell>
        <mxCell id="6g5Oj7xujyC1Iia1pv8V-111" value="No" style="text;html=1;align=center;verticalAlign=middle;whiteSpace=wrap;rounded=0;" vertex="1" parent="6g5Oj7xujyC1Iia1pv8V-39">
          <mxGeometry x="110" y="310" width="60" height="30" as="geometry" />
        </mxCell>
        <mxCell id="6g5Oj7xujyC1Iia1pv8V-112" value="Yes&lt;span style=&quot;color: rgba(0, 0, 0, 0); font-family: monospace; font-size: 0px; text-align: start; text-wrap-mode: nowrap;&quot;&gt;%3CmxGraphModel%3E%3Croot%3E%3CmxCell%20id%3D%220%22%2F%3E%3CmxCell%20id%3D%221%22%20parent%3D%220%22%2F%3E%3CmxCell%20id%3D%222%22%20value%3D%22No%22%20style%3D%22text%3Bhtml%3D1%3Balign%3Dcenter%3BverticalAlign%3Dmiddle%3BwhiteSpace%3Dwrap%3Brounded%3D0%3B%22%20vertex%3D%221%22%20parent%3D%221%22%3E%3CmxGeometry%20x%3D%22972%22%20y%3D%221030%22%20width%3D%2260%22%20height%3D%2230%22%20as%3D%22geometry%22%2F%3E%3C%2FmxCell%3E%3C%2Froot%3E%3C%2FmxGraphModel%3E&lt;/span&gt;" style="text;html=1;align=center;verticalAlign=middle;whiteSpace=wrap;rounded=0;" vertex="1" parent="6g5Oj7xujyC1Iia1pv8V-39">
          <mxGeometry x="80" y="380" width="60" height="30" as="geometry" />
        </mxCell>
        <mxCell id="6g5Oj7xujyC1Iia1pv8V-86" value="" style="endArrow=classic;html=1;rounded=0;exitX=0.5;exitY=1;exitDx=0;exitDy=0;entryX=0.5;entryY=0;entryDx=0;entryDy=0;" edge="1" parent="6g5Oj7xujyC1Iia1pv8V-36" source="6g5Oj7xujyC1Iia1pv8V-66" target="6g5Oj7xujyC1Iia1pv8V-50">
          <mxGeometry width="50" height="50" relative="1" as="geometry">
            <mxPoint x="150" y="710" as="sourcePoint" />
            <mxPoint x="200" y="660" as="targetPoint" />
            <Array as="points">
              <mxPoint x="295" y="460" />
            </Array>
          </mxGeometry>
        </mxCell>
        <mxCell id="6g5Oj7xujyC1Iia1pv8V-97" value="" style="endArrow=classic;html=1;rounded=0;exitX=0.5;exitY=1;exitDx=0;exitDy=0;entryX=0.5;entryY=0;entryDx=0;entryDy=0;" edge="1" parent="6g5Oj7xujyC1Iia1pv8V-36" source="6g5Oj7xujyC1Iia1pv8V-52" target="6g5Oj7xujyC1Iia1pv8V-69">
          <mxGeometry width="50" height="50" relative="1" as="geometry">
            <mxPoint x="170" y="640" as="sourcePoint" />
            <mxPoint x="220" y="590" as="targetPoint" />
            <Array as="points">
              <mxPoint x="295" y="700" />
              <mxPoint x="170" y="700" />
            </Array>
          </mxGeometry>
        </mxCell>
        <mxCell id="6g5Oj7xujyC1Iia1pv8V-98" value="" style="endArrow=classic;html=1;rounded=0;exitX=0.5;exitY=0;exitDx=0;exitDy=0;entryX=0;entryY=0.5;entryDx=0;entryDy=0;" edge="1" parent="6g5Oj7xujyC1Iia1pv8V-36" source="6g5Oj7xujyC1Iia1pv8V-73" target="6g5Oj7xujyC1Iia1pv8V-48">
          <mxGeometry width="50" height="50" relative="1" as="geometry">
            <mxPoint x="210" y="640" as="sourcePoint" />
            <mxPoint x="260" y="590" as="targetPoint" />
            <Array as="points">
              <mxPoint x="70" y="255" />
            </Array>
          </mxGeometry>
        </mxCell>
        <mxCell id="6g5Oj7xujyC1Iia1pv8V-95" value="" style="endArrow=classic;html=1;rounded=0;exitX=0.25;exitY=0.5;exitDx=0;exitDy=0;exitPerimeter=0;entryX=0.5;entryY=0;entryDx=0;entryDy=0;" edge="1" parent="1">
          <mxGeometry width="50" height="50" relative="1" as="geometry">
            <mxPoint x="950" y="360" as="sourcePoint" />
            <mxPoint x="951" y="385" as="targetPoint" />
          </mxGeometry>
        </mxCell>
        <mxCell id="6g5Oj7xujyC1Iia1pv8V-96" value="" style="endArrow=classic;html=1;rounded=0;exitX=0.25;exitY=0.5;exitDx=0;exitDy=0;exitPerimeter=0;entryX=0.5;entryY=0;entryDx=0;entryDy=0;" edge="1" parent="1">
          <mxGeometry width="50" height="50" relative="1" as="geometry">
            <mxPoint x="1029" y="361" as="sourcePoint" />
            <mxPoint x="1030" y="386" as="targetPoint" />
          </mxGeometry>
        </mxCell>
      </root>
    </mxGraphModel>
  </diagram>
</mxfile>
